<?xml version="1.0" encoding="UTF-8" standalone="no"?>
<!-- Created with Inkscape (http://www.inkscape.org/) -->

<svg
   width="20"
   height="12"
   viewBox="0 0 5.2916666 3.175"
   version="1.1"
   id="svg1"
   inkscape:version="1.3 (0e150ed6c4, 2023-07-21)"
   sodipodi:docname="drawing.svg"
   inkscape:export-filename="drawing.png"
   inkscape:export-xdpi="96"
   inkscape:export-ydpi="96"
   xmlns:inkscape="http://www.inkscape.org/namespaces/inkscape"
   xmlns:sodipodi="http://sodipodi.sourceforge.net/DTD/sodipodi-0.dtd"
   xmlns="http://www.w3.org/2000/svg"
   xmlns:svg="http://www.w3.org/2000/svg">
  <sodipodi:namedview
     id="namedview1"
     pagecolor="#ffffff"
     bordercolor="#000000"
     borderopacity="0.25"
     inkscape:showpageshadow="2"
     inkscape:pageopacity="0.0"
     inkscape:pagecheckerboard="0"
     inkscape:deskcolor="#d1d1d1"
     inkscape:document-units="mm"
     inkscape:zoom="8.3597643"
     inkscape:cx="42.883984"
     inkscape:cy="47.549188"
     inkscape:window-width="1350"
     inkscape:window-height="1237"
     inkscape:window-x="209"
     inkscape:window-y="40"
     inkscape:window-maximized="0"
     inkscape:current-layer="layer1" />
  <defs
     id="defs1" />
  <g
     inkscape:label="Layer 1"
     inkscape:groupmode="layer"
     id="layer1">
    <path
       d="M 4.0176731,0.67939064 V 2.5180376 c 0.01323,0.01764 0.02656,0.03417 0.03979,0.04961 0.01323,0.01543 0.02656,0.02966 0.03979,0.04289 0.02205,0.0088 0.0432,0.01574 0.06305,0.02015 0.0099,0.0022 0.01957,0.0036 0.02894,0.0047 0.0094,0.0011 0.01805,0.0015 0.02687,0.0015 h 0.264583 c 0.01103,0 0.02205,-4.13e-4 0.03307,-0.0021 0.01103,-0.0016 0.02205,-0.0044 0.03307,-0.0077 0.01102,-0.0033 0.02205,-0.0074 0.03307,-0.0124 0.01102,-0.005 0.02205,-0.01044 0.03307,-0.01705 0.01102,-0.0088 0.02163,-0.01802 0.03101,-0.02739 0.0094,-0.0094 0.0176,-0.01902 0.02532,-0.02894 0.0077,-0.0099 0.01461,-0.02002 0.02067,-0.03049 0.0061,-0.01047 0.01161,-0.02153 0.01602,-0.03256 0.01323,-0.03693 0.02563,-0.07369 0.03721,-0.110587 0.01158,-0.0369 0.02212,-0.07372 0.03204,-0.110588 0.0099,-0.03686 0.01912,-0.07376 0.02739,-0.110587 0.0083,-0.03683 0.01561,-0.07379 0.02222,-0.110588 0.0066,-0.03679 0.01261,-0.07331 0.01757,-0.110071 0.005,-0.03676 0.0091,-0.07386 0.0124,-0.110587 0.0033,-0.03672 0.0056,-0.07338 0.0072,-0.110071 0.0017,-0.03669 0.0026,-0.07341 0.0026,-0.110071 0,-0.03666 -9.3e-4,-0.07293 -0.0026,-0.109554 -0.0017,-0.03662 -0.0039,-0.07348 -0.0072,-0.110071 -0.0033,-0.03659 -0.0074,-0.073 -0.0124,-0.109554 -0.005,-0.03655 -0.01095,-0.07304 -0.01757,-0.109554 -0.0066,-0.03652 -0.01395,-0.07307 -0.02222,-0.109554 -0.0083,-0.03648 -0.01747,-0.0731 -0.02739,-0.10955396 -0.0099,-0.03645 -0.02046,-0.07262 -0.03204,-0.109037 -0.01158,-0.03641 -0.02398,-0.07317 -0.03721,-0.109554 -0.0044,-0.01323 -0.01,-0.02563 -0.01602,-0.03721 -0.0061,-0.01158 -0.01295,-0.02212 -0.02067,-0.03204 -0.0077,-0.0099 -0.01595,-0.01912 -0.02532,-0.02739 -0.0094,-0.0083 -0.01998,-0.01561 -0.03101,-0.02222 -0.01102,-0.0066 -0.02205,-0.01261 -0.03307,-0.01757 -0.01102,-0.005 -0.02205,-0.0091 -0.03307,-0.0124 -0.01102,-0.0033 -0.02205,-0.0056 -0.03307,-0.0072 -0.01102,-0.0017 -0.02205,-0.0026 -0.03307,-0.0026 h -0.264583 c -0.0088,0 -0.0175,4.47e-4 -0.02687,0.0015 -0.0094,0.0011 -0.01902,0.003 -0.02894,0.0052 -0.01984,0.0044 -0.041,0.01082 -0.06305,0.01964 -0.0066,0.0044 -0.01302,0.01 -0.01964,0.01602 -0.0066,0.0061 -0.01354,0.01295 -0.02015,0.02067 -0.01323,0.01543 -0.02656,0.03428 -0.03979,0.05633 z"
       style="fill:#7e989a"
       id="path19" />
    <path
       d="m 2.6689181,0.59619164 c -0.04493,-0.0032 -0.08773,-0.0066 -0.132808,-0.0098 -0.0452,-0.0088 -0.09019,-0.01709 -0.135392,-0.02481 -0.0452,-0.0077 -0.09071,-0.01457 -0.135909,-0.02119 -0.0452,-0.0066 -0.09019,-0.01258 -0.135393,-0.01809 -0.0452,-0.0055 -0.09019,-0.01058 -0.135392,-0.01499 -0.0452,-0.0044 -0.09071,-0.0086 -0.135909,-0.01189 -0.0452,-0.0033 -0.09019,-0.0061 -0.135392,-0.0083 -0.0452,-0.0022 -0.09071,-0.0036 -0.135909,-0.0046 -0.0452,-0.0011 -0.09019,-0.0015 -0.135392,-0.0015 H 1.1072567 c -0.01378,0 -0.02701,3.4e-5 -0.040308,0.001 -0.013298,9.99e-4 -0.026458,0.0026 -0.039274,0.0046 -0.012816,0.002 -0.02539,0.0047 -0.037724,0.0077 -0.012333,0.003 -0.024322,0.0063 -0.036174,0.01033 -0.011851,0.004 -0.023771,0.0084 -0.03514,0.01344 -0.011369,0.005 -0.022186,0.01054 -0.033073,0.01654 -0.010886,0.006 -0.021635,0.01264 -0.032039,0.01964 -0.010404,0.007 -0.020567,0.01423 -0.030489,0.02222 -0.00992,0.008 -0.019499,0.01633 -0.028939,0.02532 -0.00944,0.009 -0.018948,0.01895 -0.027905,0.02894 -0.017914,0.01998 -0.034658,0.04165 -0.050643,0.06563 -0.015985,0.02398 -0.030902,0.05006 -0.044958,0.07803 -0.014056,0.02797 -0.027147,0.05795 -0.039274,0.08992 -0.00882,0.01984 -0.017225,0.04072 -0.024805,0.06305 -0.00758,0.02232 -0.014332,0.04599 -0.020671,0.0708 -0.00634,0.02481 -0.011954,0.05075 -0.017053,0.07803 -0.0051,0.02728 -0.00958,0.05602 -0.013436,0.08578 -0.00386,0.02977 -0.0072,0.06077 -0.00982,0.09302 -0.00262,0.03225 -0.00482,0.06553 -0.0062,0.100252 -0.00138,0.03473 -0.00193,0.0708 -0.00207,0.108004 -1.378e-4,0.03721 4.479e-4,0.07555 0.00155,0.115238 v 0.02687 c -0.00165,0.0463 -0.00258,0.09098 -0.00258,0.134359 0,0.04337 9.302e-4,0.08513 0.00258,0.125574 0.00165,0.04045 0.00393,0.07927 0.00723,0.116788 0.00331,0.03752 0.00744,0.07393 0.012402,0.108521 0.00496,0.03459 0.010955,0.06756 0.01757,0.09922 0.00661,0.03166 0.013953,0.0617 0.022221,0.09043 0.00827,0.02873 0.017467,0.05636 0.027388,0.08217 0.00992,0.0258 0.020464,0.04999 0.032039,0.07286 0.011576,0.02287 0.023978,0.04413 0.037207,0.06408 0.013229,0.01995 0.027492,0.03879 0.042375,0.05581 0.014883,0.01702 0.030489,0.03242 0.047026,0.04651 0.016536,0.01409 0.034003,0.02656 0.052193,0.03772 0.01819,0.01116 0.037,0.0207 0.056844,0.02894 0.019844,0.0082 0.040514,0.01537 0.062012,0.02067 0.021497,0.0053 0.044028,0.009 0.067179,0.01137 0.023151,0.0024 0.047026,0.0031 0.07183,0.0026 h 0.026355 0.3307294 c 0.0452,0 0.09033,-4.48e-4 0.135392,-0.0015 0.04506,-0.0011 0.08995,-0.0024 0.134876,-0.0046 0.04492,-0.0022 0.09009,-0.005 0.134875,-0.0083 0.04479,-0.0033 0.08919,-0.0075 0.133842,-0.01189 0.04465,-0.0044 0.08933,-0.0095 0.133842,-0.01499 0.04451,-0.0055 0.08895,-0.01147 0.133325,-0.01809 0.04437,-0.0066 0.08857,-0.01347 0.132809,-0.02119 0.04424,-0.0077 0.08871,-0.01598 0.132808,-0.0248 0.243899,-0.01742 0.483272,-0.03477 0.72502,-0.05219 -0.0015,-0.0042 -0.0034,-0.0081 -0.0046,-0.0124 -0.0027,-0.0097 -0.0047,-0.01964 -0.0062,-0.02997 -0.0015,-0.01033 -0.0026,-0.02111 -0.0031,-0.03204 -4.77e-4,-0.01093 -5.03e-4,-0.02208 0,-0.03359 10e-4,-0.02302 0.0039,-0.04718 0.0083,-0.07235 0.0044,-0.02516 0.01011,-0.05144 0.01705,-0.07855 0.0069,-0.02711 0.01501,-0.05487 0.02377,-0.08372 0.0088,-0.02885 0.01809,-0.0585 0.02791,-0.08888 0.01963,-0.06077 0.04071,-0.12446 0.05994,-0.190169 0.0096,-0.03285 0.01902,-0.06647 0.02739,-0.100253 0.0084,-0.03379 0.01586,-0.0678 0.02222,-0.102319 0.0064,-0.03451 0.01141,-0.06935 0.01499,-0.104386 0.0036,-0.03504 0.0056,-0.07057 0.0057,-0.105937 1.6e-5,-0.01768 -5.35e-4,-0.03498 -0.0015,-0.05271 -10e-4,-0.01773 -0.0025,-0.03548 -0.0047,-0.05323 -0.0021,-0.01774 -0.0049,-0.03549 -0.0083,-0.05323 -0.0034,-0.01774 -0.0072,-0.03553 -0.01188,-0.05323 -0.0047,-0.0177 -0.0099,-0.03558 -0.01602,-0.05323 -0.0061,-0.01764 -0.01307,-0.03515 -0.02067,-0.05271 -0.0076,-0.01756 -0.01611,-0.03526 -0.02532,-0.05271 -0.0092,-0.01745 -0.01906,-0.03488 -0.02997,-0.05219 -0.01091,-0.01732 -0.02295,-0.03452 -0.03566,-0.05168 -0.01271,-0.01716 -0.02623,-0.03419 -0.04082,-0.05116 -0.0146,-0.01697 -0.02992,-0.03388 -0.04651,-0.05064 -0.01659,-0.01676 -0.03455,-0.03308 -0.05323,-0.04961 -0.01867,-0.01653 -0.03806,-0.03334 -0.05891,-0.04961 -0.02085,-0.01627 -0.04302,-0.03208 -0.06615,-0.04806 -0.02313,-0.01598 -0.04736,-0.03187 -0.07286,-0.04754 -0.0255,-0.01567 -0.05213,-0.03118 -0.0801,-0.04651 -0.02797,-0.01533 -0.05732,-0.0305 -0.08785,-0.04548 -0.03053,-0.01497 -0.06241,-0.02986 -0.0956,-0.04444 -0.0053,-0.0023 -0.0112,-0.0044 -0.01654,-0.0067 z"
       style="fill:#404d4e;fill-opacity:1"
       id="path18" />
    <path
       d="m 2.6689181,0.59619164 c 0.0053,0.0023 0.01126,0.0044 0.01654,0.0067 0.03319,0.01458 0.06507,0.02947 0.0956,0.04444 0.03053,0.01497 0.05988,0.03014 0.08785,0.04547 0.02797,0.01533 0.0546,0.03084 0.0801,0.04651 0.0255,0.01567 0.04974,0.03156 0.07286,0.04754 0.02313,0.01598 0.04529,0.03179 0.06615,0.04806 0.02085,0.01627 0.04024,0.03308 0.05891,0.04961 0.01867,0.01653 0.03664,0.03285 0.05323,0.04961 0.01659,0.01676 0.03191,0.03367 0.04651,0.05064 0.0146,0.01697 0.02812,0.034 0.04082,0.05116 0.01271,0.01716 0.02475,0.03436 0.03566,0.05168 0.01091,0.01732 0.02076,0.03474 0.02997,0.05219 0.0092,0.01745 0.01772,0.03515 0.02532,0.05271 0.0076,0.01756 0.01458,0.03507 0.02067,0.05271 0.0061,0.01764 0.01134,0.03552 0.01602,0.05323 0.0047,0.0177 0.0085,0.03549 0.01188,0.05323 0.0034,0.01774 0.0061,0.03548 0.0083,0.05323 0.0021,0.01774 0.0036,0.0355 0.0046,0.05323 0.001,0.01773 0.0016,0.03503 0.0015,0.05271 -3e-5,0.03536 -0.0021,0.0709 -0.0057,0.105936 -0.0036,0.03504 -0.0086,0.06987 -0.01499,0.104387 -0.0064,0.03451 -0.01385,0.06853 -0.02222,0.102319 -0.0084,0.03379 -0.01777,0.0674 -0.02739,0.100252 -0.01924,0.06571 -0.04032,0.1294 -0.05995,0.19017 -0.0098,0.03039 -0.01914,0.06004 -0.02791,0.08888 -0.0088,0.02885 -0.01683,0.05661 -0.02377,0.08372 -0.0069,0.02711 -0.01269,0.05339 -0.01705,0.07855 -0.0044,0.02516 -0.0073,0.04933 -0.0083,0.07235 -5.03e-4,0.01151 -4.77e-4,0.02266 0,0.03359 4.78e-4,0.01093 0.0015,0.02171 0.0031,0.03204 0.0015,0.01033 0.0035,0.02026 0.0062,0.02997 0.0012,0.0043 0.0032,0.0082 0.0046,0.0124 0.247785,-0.01786 0.497582,-0.03589 0.743107,-0.05375 l 0.02635,0.02636 V 0.67937864 l -0.02635,0.01292 c -0.432781,-0.03206 -0.875052,-0.06406 -1.3224,-0.09612 z"
       style="fill:#748c8e"
       id="path17" />
    <path
       style="opacity:0.981752;fill:#4d5e5e;fill-opacity:1;stroke:#465556;stroke-width:0.499999;stroke-linecap:round;stroke-linejoin:round;stroke-dasharray:none;stroke-dashoffset:0;stroke-opacity:1;paint-order:markers fill stroke"
       d="m 2.6458151,0.46188464 c 0.760874,0.85681096 0.717374,1.52856096 0.64901,2.14844696"
       id="path20"
       sodipodi:nodetypes="cc" />
    <path
       d="m 1.027675,0.00397964 c -0.026045,8.27e-4 -0.051401,0.0029 -0.076481,0.0057 -0.02508,0.0028 -0.049782,0.0062 -0.073897,0.01085 -0.024116,0.0047 -0.047646,0.01044 -0.070797,0.01705 -0.023151,0.0066 -0.046026,0.01419 -0.068213,0.02274 -0.022186,0.0085 -0.043891,0.01795 -0.065112,0.02842 -0.021222,0.01047 -0.041755,0.02222 -0.062012,0.03462 -0.020257,0.0124 -0.040135,0.02546 -0.059428,0.03979 -0.019292,0.01433 -0.037999,0.02973 -0.056327,0.04599 -0.018328,0.01626 -0.03638,0.03349 -0.053743,0.05168 -0.017363,0.01819 -0.034244,0.03724 -0.050643,0.05736 -0.016399,0.02012 -0.032108,0.04151 -0.047542,0.06356 -0.015434,0.02205 -0.030489,0.04475 -0.044959,0.06873 -0.014469,0.02398 -0.028353,0.04902 -0.041858,0.07493 -0.013505,0.02591 -0.026734,0.05278 -0.039274,0.08061 -0.01254,0.02784 -0.024598,0.05653 -0.036174,0.0863 -0.011024,0.02536 -0.020981,0.05237 -0.030489,0.08061 -0.00951,0.02825 -0.018362,0.05774 -0.026355,0.08888 -0.00799,0.03114 -0.015227,0.06363 -0.021704,0.09767 -0.00648,0.03404 -0.012092,0.06952 -0.017053,0.10645296 -0.00496,0.03693 -0.00947,0.07541 -0.012919,0.115239 -0.00345,0.03983 -0.00582,0.0813 -0.00775,0.124023 -0.00193,0.04272 -0.0032,0.08668 -0.00362,0.132292 -4.134e-4,0.04561 -6.89e-5,0.09257 0.00103,0.141076 v 0.02687 c -0.0022,0.05843 -0.0031,0.114791 -0.0031,0.169499 0,0.05471 8.958e-4,0.107659 0.0031,0.158647 0.0022,0.05099 0.00541,0.100011 0.00982,0.147278 0.00441,0.04727 0.00992,0.09288 0.016536,0.136425 0.00661,0.04355 0.014435,0.08523 0.023254,0.125057 0.00882,0.03983 0.018948,0.07758 0.029972,0.113689 0.011024,0.03611 0.022944,0.07045 0.036174,0.102836 0.013229,0.03238 0.027457,0.0628 0.042891,0.09147 0.011576,0.0226 0.023771,0.04448 0.036174,0.06563 0.012402,0.02115 0.025011,0.04179 0.03824,0.06149 0.013229,0.01971 0.026768,0.03859 0.040824,0.05684 0.014056,0.01826 0.028525,0.0359 0.043408,0.05271 0.014883,0.01681 0.030282,0.03269 0.045992,0.04806 0.01571,0.01536 0.032039,0.03001 0.048576,0.04392 0.016536,0.01392 0.03328,0.02732 0.050643,0.03979 0.017363,0.01247 0.035037,0.02412 0.053227,0.03514 0.01819,0.01102 0.036794,0.02143 0.055811,0.03101 0.019017,0.0096 0.038551,0.01823 0.058394,0.02636 0.019844,0.0081 0.040308,0.01554 0.060978,0.02222 0.020671,0.0067 0.041548,0.01285 0.063045,0.01809 0.021497,0.0052 0.043305,0.0097 0.065629,0.01344 0.022324,0.0038 0.045062,0.007 0.068213,0.0093 0.023151,0.0023 0.046819,0.0038 0.070797,0.0046 0.023978,8.95e-4 0.048576,0.0011 0.073381,5.16e-4 h 0.3570841 c 0.0463,0 0.09271,-4.47e-4 0.13901,-0.0015 0.0463,-0.0011 0.09271,-0.003 0.139009,-0.0052 0.0463,-0.0022 0.09219,-0.005 0.138493,-0.0083 0.0463,-0.0033 0.09271,-0.007 0.13901,-0.01137 0.0463,-0.0044 0.09271,-0.0095 0.139009,-0.01499 0.0463,-0.0055 0.09271,-0.01147 0.13901,-0.01809 0.0463,-0.0066 0.09271,-0.01399 0.139009,-0.0217 0.0463,-0.0077 0.09219,-0.01599 0.138493,-0.02481 l 1.243852,-0.07906 c 0.03528,0.01764 0.07476,0.03507 0.118856,0.05271 0.01323,0.0088 0.02746,0.01664 0.04289,0.02325 0.01543,0.0066 0.03197,0.01213 0.04961,0.01654 0.01543,0.0044 0.03156,0.0081 0.04754,0.01137 0.01599,0.0033 0.03204,0.0061 0.04858,0.0083 0.01654,0.0022 0.03355,0.0041 0.05064,0.0052 0.01709,0.0011 0.03404,0.0015 0.05168,0.0015 h 0.264583 c 0.01654,0 0.03321,-4.48e-4 0.04961,-0.0015 0.0164,-0.0011 0.03283,-0.003 0.04909,-0.0052 0.01626,-0.0022 0.03245,-0.005 0.04858,-0.0083 0.01612,-0.0033 0.03207,-0.007 0.04806,-0.01137 0.01598,-0.0044 0.03169,-0.0095 0.04754,-0.01499 0.01585,-0.0055 0.03183,-0.01147 0.04754,-0.01809 0.01571,-0.0066 0.03145,-0.01399 0.04702,-0.0217 0.01557,-0.0077 0.03107,-0.01599 0.04651,-0.02481 h 0.01292 c 0.01764,-0.01323 0.0349,-0.02653 0.05116,-0.04031 0.01626,-0.01378 0.03163,-0.02804 0.04651,-0.04237 0.01488,-0.01433 0.02939,-0.02904 0.04289,-0.04393 0.0135,-0.01488 0.02611,-0.03004 0.03824,-0.04547 0.01213,-0.01543 0.02336,-0.03104 0.03411,-0.04703 0.01075,-0.01599 0.02112,-0.03204 0.03049,-0.04858 0.0094,-0.01654 0.01785,-0.03355 0.02584,-0.05064 0.008,-0.01709 0.01561,-0.03455 0.02222,-0.05219 v 0.01344 c 0.01488,-0.04355 0.0288,-0.08726 0.04186,-0.130741 0.01306,-0.04348 0.02494,-0.08682 0.03617,-0.130225 0.01123,-0.04341 0.0216,-0.08689 0.03101,-0.130224 0.0094,-0.04334 0.01774,-0.08644 0.02532,-0.129708 0.0076,-0.04327 0.0144,-0.08651 0.02015,-0.129708 0.0058,-0.0432 0.01054,-0.08658 0.01447,-0.129708 0.0039,-0.04313 0.0072,-0.08613 0.0093,-0.129191 0.0021,-0.04306 0.0033,-0.0862 0.0036,-0.129191 2.76e-4,-0.043 -5.16e-4,-0.08575 -0.0021,-0.128674 -0.0015,-0.04293 -0.0039,-0.08582 -0.0072,-0.128675 -0.0034,-0.04286 -0.0077,-0.08589 -0.01292,-0.128674 -0.0052,-0.04279 -0.01158,-0.08544 -0.0186,-0.128157 -0.007,-0.04272 -0.01492,-0.08551 -0.02377,-0.12815796 -0.0089,-0.04265 -0.01878,-0.08506 -0.02946,-0.127641 -0.01068,-0.04258 -0.02212,-0.08513 -0.03462,-0.127641 -0.01251,-0.04251 -0.02598,-0.0852 -0.04031,-0.12764 -0.0077,-0.02425 -0.01633,-0.0473 -0.02584,-0.06976 -0.0095,-0.02246 -0.01971,-0.04392 -0.03101,-0.0646 -0.0113,-0.02067 -0.0236,-0.04055 -0.03669,-0.05943 -0.01309,-0.01888 -0.02698,-0.03717 -0.04186,-0.05426 -0.01488,-0.01709 -0.03087,-0.03328 -0.04754,-0.04858 -0.01667,-0.0153 -0.03424,-0.02939 -0.05271,-0.04289 -0.01847,-0.01351 -0.03762,-0.02601 -0.05788,-0.03772 -0.02026,-0.01171 -0.04151,-0.02263 -0.06356,-0.03256 -0.02646,-0.01543 -0.05357,-0.02925 -0.08113,-0.04082 -0.02756,-0.01158 -0.05557,-0.02122 -0.08423,-0.02894 -0.02866,-0.0077 -0.05809,-0.01319 -0.08785,-0.01705 -0.02977,-0.0039 -0.06008,-0.0057 -0.09095,-0.0057 h -0.264583 c -0.02646,0 -0.05309,0.0013 -0.0801,0.0047 -0.02701,0.0033 -0.05409,0.0084 -0.08165,0.01499 -0.02756,0.0066 -0.0556,0.01488 -0.08372,0.02481 -0.02811,0.0099 -0.0566,0.02139 -0.08527,0.03462 -0.01323,0.0044 -0.02604,0.0099 -0.03927,0.01654 -0.01323,0.0066 -0.02656,0.01444 -0.03979,0.02325 -0.202819,-0.01763 -0.406769,-0.03417 -0.611821,-0.0496 -0.205052,-0.01543 -0.411311,-0.02966 -0.618567,-0.04289 -0.04741,-0.0088 -0.09484,-0.01709 -0.14211,-0.02481 -0.04727,-0.0077 -0.09446,-0.01509 -0.141594,-0.0217 -0.04713,-0.0066 -0.09409,-0.01258 -0.141076,-0.01809 -0.04699,-0.0055 -0.09371,-0.01058 -0.14056,-0.01499 -0.04685,-0.0044 -0.09384,-0.0081 -0.14056,-0.01137 -0.04671,-0.0033 -0.09347,-0.0061 -0.140043,-0.0083 -0.04658,-0.0022 -0.09309,-0.0041 -0.139527,-0.0052 -0.04644,-0.0011 -0.09271,-0.0015 -0.139009,-0.0015 H 1.1072567 c -0.02701,-0.0011 -0.053537,-0.0013 -0.079582,-5.17e-4 z m 0.208256,0.234094 c 0.065047,0.0093 0.1282231,0.01898 0.1896521,0.02894 0.06143,0.01 0.120892,0.02043 0.178801,0.03101 0.05791,0.01058 0.114499,0.02139 0.168982,0.03256 0.05448,0.01116 0.106976,0.02238 0.15813,0.03411 0.05115,0.01173 0.100908,0.02391 0.148828,0.03617 0.04792,0.01227 0.09423,0.02494 0.139009,0.03772 0.04478,0.01278 0.08797,0.02549 0.129708,0.03876 0.04174,0.01327 0.08213,0.02709 0.120923,0.04082 0.03879,0.01373 0.07568,0.02769 0.111621,0.04186 0.03023,0.01192 0.05905,0.02396 0.08733,0.03617 0.447348,0.03206 0.889619,0.06406 1.3224,0.09612 l 0.02635,-0.01292 c 0.01323,-0.02205 0.02656,-0.04089 0.03979,-0.05633 0.0066,-0.0077 0.01354,-0.01461 0.02015,-0.02067 0.0066,-0.0061 0.01302,-0.01161 0.01964,-0.01602 0.02205,-0.0088 0.0432,-0.01523 0.06305,-0.01964 0.0099,-0.0022 0.01957,-0.0041 0.02894,-0.0052 0.0094,-0.0011 0.01805,-0.0015 0.02687,-0.0015 h 0.264583 c 0.01103,0 0.02205,9.3e-4 0.03307,0.0026 0.01103,0.0016 0.02205,0.0039 0.03307,0.0072 0.01102,0.0033 0.02205,0.0074 0.03307,0.0124 0.01102,0.005 0.02205,0.01096 0.03307,0.01757 0.01102,0.0066 0.02163,0.01395 0.03101,0.02222 0.0094,0.0083 0.0176,0.01747 0.02532,0.02739 0.0077,0.0099 0.01461,0.02046 0.02067,0.03204 0.0061,0.01158 0.01161,0.02398 0.01602,0.03721 0.01323,0.03638 0.02563,0.07314 0.03721,0.109554 0.01158,0.03641 0.02212,0.07259 0.03204,0.109037 0.0099,0.03645 0.01912,0.07307 0.02739,0.10955396 0.0083,0.03648 0.01561,0.07304 0.02222,0.109554 0.0066,0.03652 0.01261,0.073 0.01757,0.109554 0.005,0.03655 0.0091,0.07297 0.0124,0.109555 0.0033,0.03659 0.0056,0.07345 0.0072,0.11007 0.0017,0.03662 0.0026,0.0729 0.0026,0.109554 0,0.03666 -9.3e-4,0.07338 -0.0026,0.110071 -0.0017,0.03669 -0.0039,0.07335 -0.0072,0.110071 -0.0033,0.03672 -0.0074,0.07383 -0.0124,0.110588 -0.005,0.03676 -0.01095,0.07328 -0.01757,0.11007 -0.0066,0.03679 -0.01395,0.07376 -0.02222,0.110588 -0.0083,0.03683 -0.01747,0.07372 -0.02739,0.110587 -0.0099,0.03686 -0.02046,0.07369 -0.03204,0.110588 -0.01158,0.0369 -0.02398,0.07366 -0.03721,0.110588 -0.0044,0.01102 -0.01,0.02208 -0.01602,0.03256 -0.0061,0.01047 -0.01295,0.02057 -0.02067,0.03049 -0.0077,0.0099 -0.01595,0.01957 -0.02532,0.02894 -0.0094,0.0094 -0.01998,0.01857 -0.03101,0.02739 -0.01102,0.0066 -0.02205,0.01209 -0.03307,0.01705 -0.01102,0.005 -0.02205,0.0091 -0.03307,0.0124 -0.01102,0.0033 -0.02205,0.0061 -0.03307,0.0077 -0.01102,0.0016 -0.02205,0.0021 -0.03307,0.0021 h -0.264583 c -0.0088,0 -0.0175,-4.48e-4 -0.02687,-0.0015 -0.0094,-0.0011 -0.01902,-0.0024 -0.02894,-0.0046 -0.01984,-0.0044 -0.041,-0.01133 -0.06305,-0.02015 -0.01323,-0.01323 -0.02656,-0.02746 -0.03979,-0.04289 -0.01323,-0.01543 -0.02656,-0.03197 -0.03979,-0.04961 l -0.02635,-0.02635 c -0.245525,0.01786 -0.495322,0.03589 -0.743107,0.05374 0.0018,0.0052 0.0035,0.01048 0.0057,0.0155 0.004,0.0091 0.0086,0.01797 0.01395,0.02636 0.0054,0.0084 0.01127,0.01661 0.01809,0.02429 0.0068,0.0077 0.01436,0.01475 0.02274,0.0217 0.0084,0.007 0.01787,0.01343 0.0279,0.01964 0.01003,0.0062 0.02078,0.01214 0.03256,0.01757 0.01178,0.0054 0.0241,0.01036 0.03772,0.01499 0.01362,0.0046 0.02836,0.0091 0.04392,0.01292 0.01556,0.0038 0.03201,0.0074 0.04961,0.01033 0.0176,0.003 0.0366,0.0052 0.05633,0.0072 0.01973,0.0021 0.04057,0.0035 0.06253,0.0046 0,0 0,0 0,0 -0.02196,-0.0012 -0.0428,-0.0026 -0.06253,-0.0046 -0.01973,-0.0021 -0.03873,-0.0043 -0.05633,-0.0072 -0.0176,-0.003 -0.03405,-0.0065 -0.04961,-0.01033 -0.01556,-0.0038 -0.0303,-0.0083 -0.04392,-0.01292 -0.01362,-0.0046 -0.02595,-0.0096 -0.03772,-0.01499 -0.01178,-0.0054 -0.02253,-0.01137 -0.03256,-0.01757 -0.01003,-0.0062 -0.01953,-0.01268 -0.0279,-0.01964 -0.0084,-0.007 -0.01592,-0.01402 -0.02274,-0.0217 -0.0068,-0.0077 -0.01272,-0.01591 -0.01809,-0.02429 -0.0054,-0.0084 -0.01,-0.0173 -0.01395,-0.02636 -0.0022,-0.005 -0.0039,-0.01027 -0.0057,-0.0155 -0.241748,0.01742 -0.481121,0.03477 -0.72502,0.05219 -0.0441,0.0088 -0.08857,0.01709 -0.132809,0.02481 -0.04424,0.0077 -0.08844,0.01457 -0.132808,0.02119 -0.04437,0.0066 -0.08882,0.01258 -0.133325,0.01809 -0.04451,0.0055 -0.08919,0.01058 -0.133842,0.01499 -0.04465,0.0044 -0.08906,0.0086 -0.133842,0.01189 -0.04479,0.0033 -0.08995,0.0061 -0.134876,0.0083 -0.04492,0.0022 -0.08981,0.0036 -0.134875,0.0046 -0.04506,0.0011 -0.09019,0.0016 -0.135392,0.0016 H 1.1206926 1.0943376 c -0.024805,5.51e-4 -0.048679,-2.06e-4 -0.07183,-0.0026 -0.023151,-0.0024 -0.045682,-0.0061 -0.067179,-0.01137 -0.021497,-0.0053 -0.042168,-0.01244 -0.062012,-0.02067 -0.019844,-0.0082 -0.038654,-0.01778 -0.056844,-0.02894 -0.01819,-0.01116 -0.035657,-0.02363 -0.052193,-0.03772 -0.016536,-0.01409 -0.032143,-0.02949 -0.047026,-0.04651 -0.014883,-0.01702 -0.029146,-0.03586 -0.042375,-0.05581 -0.013229,-0.01995 -0.025632,-0.0412 -0.037207,-0.06408 -0.011576,-0.02287 -0.022118,-0.04706 -0.032039,-0.07286 -0.00992,-0.0258 -0.01912,-0.05343 -0.027388,-0.08217 -0.00827,-0.02873 -0.015606,-0.05877 -0.022221,-0.09043 -0.00661,-0.03166 -0.012609,-0.06463 -0.01757,-0.09922 -0.00496,-0.03459 -0.0091,-0.071 -0.012402,-0.10852 -0.00331,-0.03752 -0.00558,-0.07634 -0.00723,-0.116789 -0.00165,-0.04045 -0.00258,-0.0822 -0.00258,-0.125574 0,-0.04337 9.302e-4,-0.08806 0.00258,-0.134358 v -0.02687 c -0.0011,-0.03969 -0.00169,-0.07803 -0.00155,-0.115239 1.378e-4,-0.03721 6.891e-4,-0.07328 0.00207,-0.108004 0.00138,-0.03473 0.00358,-0.06801 0.0062,-0.100252 0.00262,-0.03225 0.00596,-0.06325 0.00982,-0.09302 0.00386,-0.02977 0.00834,-0.0585 0.013436,-0.08578 0.0051,-0.02729 0.010714,-0.05323 0.017053,-0.07803 0.00634,-0.02481 0.013091,-0.04847 0.020671,-0.0708 0.00758,-0.02232 0.015985,-0.0432 0.024805,-0.06305 0.012127,-0.03197 0.025218,-0.06194 0.039274,-0.08992 0.014056,-0.02797 0.028973,-0.05405 0.044958,-0.07803 0.015985,-0.02398 0.032729,-0.04565 0.050643,-0.06563 0.00896,-0.01 0.018466,-0.01995 0.027905,-0.02894 0.00944,-0.009 0.019017,-0.01733 0.028939,-0.02532 0.00992,-0.008 0.020085,-0.01523 0.030489,-0.02222 0.010404,-0.007 0.021153,-0.01364 0.032039,-0.01964 0.010886,-0.006 0.021704,-0.01154 0.033073,-0.01654 0.011369,-0.005 0.023289,-0.0094 0.03514,-0.01344 0.011851,-0.004 0.02384,-0.0073 0.036174,-0.01033 0.012333,-0.003 0.024908,-0.0058 0.037724,-0.0078 0.012816,-0.002 0.025976,-0.0036 0.039274,-0.0046 0.013298,-9.99e-4 0.026527,-0.001 0.040308,-0.001 h 0.3441645 c 0.0452,0 0.09019,4.48e-4 0.135393,0.0015 0.0452,0.0011 0.09071,0.0025 0.135909,0.0047 0.0452,0.0022 0.09019,0.005 0.135392,0.0083 0.0452,0.0033 0.09071,0.0075 0.135909,0.01189 0.0452,0.0044 0.09019,0.0095 0.135392,0.01499 0.0452,0.0055 0.09019,0.01147 0.135393,0.01809 0.0452,0.0066 0.09071,0.01347 0.135909,0.02119 0.0452,0.0077 0.09019,0.01599 0.135392,0.02481 0.04508,0.0032 0.08788,0.0066 0.132808,0.0098 -0.02829,-0.01223 -0.05711,-0.02426 -0.08734,-0.03618 -0.03594,-0.01417 -0.07283,-0.02812 -0.111621,-0.04186 -0.03879,-0.01373 -0.07918,-0.02755 -0.120923,-0.04082 -0.04174,-0.01327 -0.08493,-0.02598 -0.129708,-0.03876 -0.04478,-0.01278 -0.09109,-0.02546 -0.139009,-0.03772 -0.04792,-0.01227 -0.09768,-0.02445 -0.148828,-0.03617 -0.05115,-0.01173 -0.103647,-0.02294 -0.15813,-0.03411 -0.05448,-0.01117 -0.111074,-0.02198 -0.168982,-0.03256 -0.05791,-0.01057 -0.117371,-0.02105 -0.178801,-0.03101 -0.06143,-0.01 -0.1246055,-0.01962 -0.1896521,-0.02894 z"
       style="fill:#4e5f5f;fill-opacity:1"
       id="path16" />
  </g>
</svg>
